M48
; DRILL file {KiCad 5.1.7} date Thu Oct 29 20:50:33 2020
; FORMAT={-:-/ absolute / inch / decimal}
; #@! TF.CreationDate,2020-10-29T20:50:33-04:00
; #@! TF.GenerationSoftware,Kicad,Pcbnew,5.1.7
FMAT,2
INCH
T1C0.0315
T2C0.0394
T3C0.0472
%
G90
G05
T1
X-1.0079Y-1.4469
X-0.6079Y-1.4469
X-0.4528Y-0.0807
X-0.4528Y-0.4807
X-0.4488Y-1.1024
X-0.4488Y-1.2992
X-1.0079Y-1.1122
X-0.6079Y-1.1122
X-0.0984Y-0.1791
X-0.0984Y-0.376
X-0.989Y-0.6516
X-0.989Y-0.9516
X-0.889Y-0.6516
X-0.889Y-0.9516
X-0.789Y-0.6516
X-0.789Y-0.9516
X-0.689Y-0.6516
X-0.689Y-0.9516
X-0.6299Y-0.3031
X-0.6299Y-0.5
X-0.2756Y-0.0843
X-0.2756Y-0.4843
X-0.8071Y-0.1083
X-0.8071Y-0.5083
X-1.0083Y-1.2894
X-0.6083Y-1.2894
X-0.9843Y-0.3031
X-0.9843Y-0.5
T2
X-1.3205Y-0.5433
X-1.2205Y-0.5433
X-1.3402Y-1.1583
X-1.2402Y-0.8583
X-1.2402Y-1.3583
X-0.4992Y-0.6791
X-0.3992Y-0.6791
X-0.2992Y-0.6791
X-0.2787Y-1.2244
X-0.1787Y-1.2244
X-0.0787Y-1.2244
X-1.3189Y-0.3228
X-1.2189Y-0.3228
T3
X-0.5118Y-0.9134
X-0.1118Y-0.9134
T0
M30
